<svg width="40" height="40" viewBox="0 0 40 40" fill="none" xmlns="http://www.w3.org/2000/svg">
<rect width="40" height="40" rx="4" fill="url(#paint0_linear_2857_10)"/>
<path fill-rule="evenodd" clip-rule="evenodd" d="M32 24.9151C31.9952 24.8886 31.9952 24.8615 32 24.8351L31.9434 23.355C31.9384 23.3228 31.9384 23.29 31.9434 23.2579C31.8016 21.4703 31.0886 19.7777 29.9116 18.4348C29.7229 18.2131 29.5133 18.0153 29.304 17.8179L29.304 17.8179L29.304 17.8178C29.2057 17.7251 29.1075 17.6325 29.0117 17.5376L28.8759 17.4118L29.0626 17.3204C30.2764 16.7496 31.1544 15.6367 31.434 14.3146C31.7605 12.8996 31.3313 11.4153 30.3021 10.4001C29.5736 9.63549 28.6019 9.15404 27.5572 9.04L27.2006 9H26.8158H26.7026C26.0566 9.03802 25.4277 9.22365 24.8632 9.54288C22.7674 10.6098 21.9119 13.1807 22.9445 15.3089C22.9509 15.3238 22.9564 15.3378 22.9623 15.3529L22.9623 15.3529C22.9723 15.3784 22.9834 15.4066 23.0011 15.446C22.1796 15.4771 21.3662 15.6233 20.5845 15.8803C19.7965 16.1414 19.0494 16.5147 18.3659 16.989V16.8575C18.31 15.9621 18.0649 15.0892 17.6471 14.2974C16.2687 11.7467 13.4478 10.35 10.6065 10.8115C9.14117 11.0214 7.78796 11.7216 6.76359 12.8002C5.75583 13.8524 5.14334 15.2267 5.03174 16.6861C4.90377 17.9427 5.16477 19.2085 5.77881 20.3091C7.54366 23.4419 11.3931 24.6845 14.6305 23.1664L14.755 23.1207C14.7543 23.134 14.7543 23.1474 14.755 23.1607V23.355C14.6179 24.949 14.9298 26.5497 15.6549 27.9724C17.4238 31.4199 21.2291 33.2806 25.0047 32.544C27.4289 32.1111 29.5476 30.637 30.8115 28.5038C31.4911 27.4231 31.8991 26.1912 32 24.9151ZM16.4351 25.9095C16.2698 25.3105 16.1879 24.6912 16.1917 24.0694C16.2063 21.027 18.1352 18.3306 20.9911 17.3605C21.9821 17.0199 23.0346 16.901 24.0756 17.0119C27.0116 17.3067 29.4574 19.4118 30.2107 22.2921C30.867 24.6778 30.1861 27.235 28.4335 28.9668C27.3837 30.0933 25.9876 30.8284 24.4718 31.0526C20.8873 31.6517 17.4285 29.4382 16.4351 25.9095ZM11.665 11.6458H11.1783C11.0651 11.6458 10.9463 11.6458 10.8331 11.6801C9.529 11.8577 8.32147 12.4713 7.40331 13.4231C5.61774 15.2168 5.31365 18.0254 6.67321 20.1663C7.71045 21.8627 9.54339 22.8961 11.5179 22.8978C12.7092 22.9516 13.8866 22.6214 14.8797 21.9549C16.4239 20.9985 17.3972 19.3306 17.4775 17.5033C17.5478 16.4291 17.2825 15.3598 16.7191 14.446C15.6514 12.6702 13.7277 11.6031 11.6707 11.6458H11.665ZM30.2391 11.8286C30.5266 12.3803 30.6596 13.0007 30.624 13.623H30.6297C30.5499 14.8294 29.8467 15.9043 28.7789 16.4517C28.3322 16.7058 27.8357 16.858 27.3244 16.8975C27.0703 16.9097 26.8156 16.8905 26.566 16.8403C25.9198 16.7512 25.3044 16.5062 24.7719 16.126C23.4062 15.1319 22.9929 13.2636 23.8098 11.7772C24.4705 10.6075 25.7058 9.88966 27.0394 9.90033C28.373 9.911 29.5968 10.6485 30.2391 11.8286Z" fill="white"/>
<defs>
<linearGradient id="paint0_linear_2857_10" x1="-6" y1="-4.5" x2="55.8133" y2="51.0877" gradientUnits="userSpaceOnUse">
<stop offset="0.03125" stop-color="#96DCD0"/>
<stop offset="0.0520833" stop-color="#6CCEBD"/>
<stop offset="0.333333" stop-color="#2DB8A1"/>
<stop offset="0.697917" stop-color="#28A38F"/>
<stop offset="1" stop-color="#208171"/>
</linearGradient>
</defs>
</svg>
